<?xml version="1.0" standalone="no"?>
<!DOCTYPE svg PUBLIC "-//W3C//DTD SVG 20010904//EN"
 "http://www.w3.org/TR/2001/REC-SVG-20010904/DTD/svg10.dtd">
<svg version="1.0" xmlns="http://www.w3.org/2000/svg"
 width="888.000000pt" height="888.000000pt" viewBox="0 0 888.000000 888.000000"
 preserveAspectRatio="xMidYMid meet">
<metadata>
Created by potrace 1.14, written by Peter Selinger 2001-2017
</metadata>
<g transform="translate(0.000000,888.000000) scale(0.100000,-0.100000)"
fill="#0071bf" stroke="none">
<path d="M0 4440 l0 -4440 4440 0 4440 0 0 4440 0 4440 -4440 0 -4440 0 0
-4440z m6570 1945 c417 -58 707 -187 945 -420 95 -94 158 -179 214 -291 176
-353 158 -745 -56 -1218 -131 -291 -263 -461 -486 -629 -41 -31 -85 -72 -97
-91 -125 -203 -642 -419 -965 -403 -127 6 -203 33 -264 94 -24 24 -45 42 -46
41 0 -2 -18 -66 -40 -143 -146 -530 -276 -764 -510 -920 -206 -137 -478 -234
-656 -235 -99 0 -161 22 -215 75 -149 149 -113 372 215 1328 34 98 77 242 97
320 41 166 571 1769 588 1779 38 25 -164 -24 -277 -66 -143 -55 -248 -18 -287
100 -48 143 83 390 260 491 166 95 472 169 835 202 147 14 607 5 745 -14z
m-3820 -15 c102 -6 271 -17 375 -25 105 -9 303 -19 440 -24 209 -8 261 -13
315 -30 193 -62 264 -165 263 -386 0 -158 -35 -264 -116 -352 -100 -109 -302
-175 -610 -199 -48 -4 -90 -10 -92 -14 -11 -19 -303 -935 -299 -939 2 -3 131
0 287 6 400 14 536 1 638 -60 103 -62 134 -175 88 -323 -42 -135 -152 -329
-245 -433 -103 -115 -129 -120 -623 -132 -217 -5 -398 -12 -402 -16 -5 -5 -27
-68 -49 -141 -90 -292 -208 -564 -313 -723 -198 -299 -463 -479 -707 -479
-240 0 -465 159 -501 354 -12 67 2 162 56 369 152 590 731 2272 832 2418 l33
49 -57 0 c-131 0 -308 38 -404 86 -144 72 -180 256 -85 430 96 177 403 484
533 535 101 39 295 48 643 29z"/>
<path d="M6218 4868 c-108 -348 -229 -748 -268 -888 -39 -140 -73 -262 -75
-270 -3 -8 24 12 59 46 35 34 126 103 202 154 215 145 278 201 364 329 94 140
141 279 160 477 21 213 -4 383 -80 540 -43 88 -145 244 -161 244 -3 0 -93
-285 -201 -632z"/>
</g>
</svg>
