<?xml version="1.0" standalone="no"?>
<!DOCTYPE svg PUBLIC "-//W3C//DTD SVG 20010904//EN"
 "http://www.w3.org/TR/2001/REC-SVG-20010904/DTD/svg10.dtd">
<svg version="1.0" xmlns="http://www.w3.org/2000/svg"
 width="770.000000pt" height="770.000000pt" viewBox="0 0 770.000000 770.000000"
 preserveAspectRatio="xMidYMid meet">
<metadata>
Created by potrace 1.14, written by Peter Selinger 2001-2017
</metadata>
<g transform="translate(0.000000,770.000000) scale(0.100000,-0.100000)"
fill="#006ab5" stroke="none">
<path d="M0 3850 l0 -3850 3850 0 3850 0 0 3850 0 3850 -3850 0 -3850 0 0
-3850z m5840 1960 c333 -30 584 -98 796 -216 240 -135 430 -337 529 -563 147
-335 122 -706 -78 -1159 -125 -283 -268 -469 -489 -634 -42 -32 -86 -73 -97
-91 -86 -140 -376 -299 -681 -374 -84 -21 -131 -27 -235 -27 -183 -1 -277 31
-332 113 -15 22 -24 29 -27 20 -3 -8 -23 -80 -45 -161 -173 -619 -312 -823
-686 -1003 -190 -92 -341 -135 -481 -135 -71 0 -89 4 -143 31 -73 37 -114 86
-138 168 -40 140 30 466 219 1003 98 282 123 362 164 521 19 76 158 509 308
962 152 457 269 825 262 825 -20 0 -193 -50 -260 -75 -142 -54 -248 -16 -286
101 -48 143 85 391 262 492 223 127 654 208 1123 211 110 0 252 -4 315 -9z
m-3674 -30 c99 -6 265 -17 369 -25 105 -9 285 -18 400 -21 242 -6 312 -15 408
-52 82 -32 145 -88 175 -155 29 -64 45 -188 37 -271 -30 -304 -208 -437 -648
-483 -89 -9 -165 -19 -169 -22 -10 -9 -308 -935 -302 -940 3 -3 132 0 287 7
434 17 594 -4 682 -92 93 -94 86 -234 -22 -451 -104 -208 -215 -338 -313 -368
-88 -27 -191 -36 -416 -37 -116 0 -271 -3 -345 -6 l-134 -7 -43 -141 c-91
-296 -208 -565 -317 -731 -158 -238 -362 -402 -568 -457 -240 -62 -521 56
-615 260 -41 90 -35 172 31 432 158 615 734 2294 837 2437 l31 43 -48 0 c-76
0 -211 19 -294 41 -149 40 -227 107 -250 217 -16 75 1 175 41 251 90 168 372
461 514 533 91 47 306 59 672 38z"/>
<path d="M5632 4292 c-106 -340 -212 -690 -236 -778 -24 -87 -55 -197 -69
-244 -13 -47 -28 -101 -32 -119 l-7 -35 63 58 c35 32 125 99 199 149 218 147
278 202 368 339 111 172 155 333 156 583 1 225 -28 344 -126 504 -44 72 -109
161 -118 161 -3 0 -92 -278 -198 -618z"/>
</g>
</svg>
